<svg width="184" height="116" viewBox="0 0 184 116" fill="none" xmlns="http://www.w3.org/2000/svg">
<path d="M92.813 90.9213C117.441 90.9213 137.407 71.0156 137.407 46.4606C137.407 21.9057 117.441 2 92.813 2C68.1846 2 48.2194 21.9057 48.2194 46.4606C48.2194 71.0156 68.1846 90.9213 92.813 90.9213Z" fill="#15171C" stroke="#F97535" stroke-width="2.5"/>
<path fill-rule="evenodd" clip-rule="evenodd" d="M85.6677 80.9592C88.0089 81.3901 90.3907 81.614 92.8133 81.6309C112.295 81.6309 128.089 65.8846 128.089 46.4606C128.089 27.0365 112.295 11.2902 92.8133 11.2902C87.8086 11.2902 83.0474 12.3293 78.7347 14.2029C71.2404 17.4588 65.1008 23.2348 61.3927 30.4572C58.9281 35.2577 57.5377 40.6973 57.5377 46.4606C57.5377 51.6897 58.6823 56.6523 60.7353 61.1128C62.201 64.2974 64.1298 67.226 66.4356 69.8131" fill="#232429"/>
<path d="M85.6677 80.9592C88.0089 81.3901 90.3907 81.614 92.8133 81.6309C112.295 81.6309 128.089 65.8846 128.089 46.4606C128.089 27.0365 112.295 11.2902 92.8133 11.2902C87.8086 11.2902 83.0474 12.3293 78.7347 14.2029C71.2404 17.4588 65.1008 23.2348 61.3927 30.4572C58.9281 35.2577 57.5377 40.6973 57.5377 46.4606C57.5377 51.6897 58.6823 56.6523 60.7353 61.1128C62.201 64.2974 64.1298 67.226 66.4356 69.8131" stroke="#F97535" stroke-width="2.5" stroke-linecap="round"/>
<path d="M70.5792 73.7672C73.4387 76.0844 76.6692 77.9641 80.1681 79.304" stroke="#F97535" stroke-width="2.5" stroke-linecap="round"/>
<path d="M129.42 81.6312L137.407 89.5943" stroke="#F97535" stroke-width="2.5"/>
<path fill-rule="evenodd" clip-rule="evenodd" d="M136.116 88.3071C133.597 90.8191 133.597 94.8918 136.116 97.4038L150.872 112.116C153.392 114.628 157.477 114.628 159.996 112.116C162.516 109.604 162.516 105.531 159.996 103.019L145.24 88.3071C142.72 85.7952 138.636 85.7952 136.116 88.3071Z" fill="#414455" stroke="#F97535" stroke-width="2.5"/>
<path d="M142.731 90.9212L157.374 105.52" stroke="#232429" stroke-width="2.5" stroke-linecap="round"/>
<path fill-rule="evenodd" clip-rule="evenodd" d="M84.1606 31.1981C84.1606 46.5908 96.6762 59.069 112.115 59.069C115.148 59.069 118.068 58.5874 120.802 57.6969C116.339 68.7402 105.489 76.5356 92.8131 76.5356C76.1536 76.5356 62.6483 63.0706 62.6483 46.4607C62.6483 31.4099 73.7373 18.9413 88.214 16.7332C85.6421 20.9513 84.1606 25.9022 84.1606 31.1981Z" fill="#414455"/>
<path d="M93.4788 21.9078C91.7837 21.9078 90.1276 22.0741 88.5259 22.3911M83.6878 23.8669C74.5816 27.6822 68.1869 36.6587 68.1869 47.1243" stroke="#FFD9C7" stroke-width="2.5" stroke-linecap="round"/>
<path d="M164.263 46.8287H153.38M172.682 36.5068H149.818H172.682ZM182 36.5068H179.043H182Z" stroke="#FFD9C7" stroke-width="2.5" stroke-linecap="round" stroke-linejoin="round"/>
<path d="M44.4597 76.0266H33.5765M38.2355 64.3774H15.372H38.2355ZM7.61905 64.3774H2H7.61905Z" stroke="#FFD9C7" stroke-width="2.5" stroke-linecap="round" stroke-linejoin="round"/>
</svg>
